<svg width="25" height="24" viewBox="0 0 25 24" fill="none" xmlns="http://www.w3.org/2000/svg">
<path d="M19.8333 5.25H4.83325C4.00482 5.25 3.33325 5.92157 3.33325 6.75V17.25C3.33325 18.0784 4.00482 18.75 4.83325 18.75H19.8333C20.6617 18.75 21.3333 18.0784 21.3333 17.25V6.75C21.3333 5.92157 20.6617 5.25 19.8333 5.25Z" stroke="black" stroke-opacity="0.3" stroke-linecap="round" stroke-linejoin="round"/>
<path d="M5.33325 11.5H9.47492C9.60926 11.4991 9.73964 11.5588 9.8435 11.6689C9.94736 11.7791 10.0182 11.9327 10.0437 12.1032C10.1551 12.7812 10.4433 13.3893 10.86 13.8256C11.2768 14.2619 11.7969 14.5 12.3333 14.5C12.8696 14.5 13.3897 14.2619 13.8065 13.8256C14.2232 13.3893 14.5114 12.7812 14.6228 12.1032C14.6483 11.9327 14.7191 11.7791 14.823 11.6689C14.9269 11.5588 15.0572 11.4991 15.1916 11.5H19.3333" stroke="black" stroke-opacity="0.3" stroke-linecap="round" stroke-linejoin="round"/>
<path d="M5.33325 8.5H19.3333" stroke="black" stroke-opacity="0.3" stroke-linecap="round" stroke-linejoin="round"/>
</svg>
