<svg width="8" height="8" viewBox="0 0 8 8" fill="none" xmlns="http://www.w3.org/2000/svg">
<g clip-path="url(#clip0_36_1157)">
<path d="M6.20529 5.39639C5.69915 5.78221 5.08283 5.99594 4.44649 6.00635C2.37383 6.00635 1.18945 3.63759 1.18945 3.63759C1.55776 2.95121 2.0686 2.35154 2.68769 1.87879M3.82469 1.3399C4.02851 1.29219 4.23717 1.26834 4.44649 1.26884C6.51915 1.26884 7.70353 3.63759 7.70353 3.63759C7.5238 3.97384 7.30945 4.2904 7.06397 4.58213M5.07421 4.26531C4.99289 4.35259 4.89482 4.42259 4.78586 4.47114C4.6769 4.51969 4.55928 4.54579 4.44001 4.5479C4.32073 4.55 4.20226 4.52806 4.09166 4.48338C3.98105 4.43871 3.88057 4.37221 3.79622 4.28786C3.71187 4.20351 3.64538 4.10304 3.6007 3.99243C3.55603 3.88182 3.53409 3.76335 3.53619 3.64408C3.53829 3.52481 3.5644 3.40719 3.61295 3.29822C3.6615 3.18926 3.7315 3.09119 3.81877 3.00987" stroke="white" stroke-opacity="0.6" stroke-width="0.888283" stroke-linecap="round" stroke-linejoin="round"/>
<path d="M1.18945 0.380585L7.70353 6.89466" stroke="white" stroke-opacity="0.6" stroke-width="0.888283" stroke-linecap="round" stroke-linejoin="round"/>
</g>
<defs>
<clipPath id="clip0_36_1157">
<rect width="7.10627" height="7.10627" fill="white" transform="translate(0.893555 0.0844727)"/>
</clipPath>
</defs>
</svg>
