<svg width="20" height="22" viewBox="0 0 20 22" fill="none" xmlns="http://www.w3.org/2000/svg">
<path d="M16.4139 12.4388V20.1793H4.02905V12.4388" stroke="#E4325A" stroke-width="1.5481" stroke-linecap="round" stroke-linejoin="round"/>
<path d="M18.0028 6.23408L2.52197 6.1465L2.50008 10.0167L17.9809 10.1043L18.0028 6.23408Z" stroke="#E4325A" stroke-width="1.5481" stroke-linecap="round" stroke-linejoin="round"/>
<path d="M10.2217 20.1793V13.9869" stroke="#E4325A" stroke-width="1.5481" stroke-linecap="round" stroke-linejoin="round"/>
<path d="M10.2624 6.19031L6.77917 6.17061C6.26595 6.1677 5.7749 5.96104 5.41406 5.59609C5.05321 5.23113 4.85212 4.73778 4.85502 4.22456C4.85792 3.71134 5.06458 3.22029 5.42954 2.85944C5.79449 2.49859 6.28785 2.2975 6.80107 2.30041C9.51021 2.31573 10.2624 6.19031 10.2624 6.19031Z" stroke="#E4325A" stroke-width="1.5481" stroke-linecap="round" stroke-linejoin="round"/>
<path d="M10.2625 6.19027L13.7457 6.20998C14.2589 6.21288 14.7523 6.01179 15.1172 5.65094C15.4822 5.29009 15.6889 4.79904 15.6918 4.28582C15.6947 3.7726 15.4936 3.27925 15.1327 2.91429C14.7719 2.54934 14.2808 2.34268 13.7676 2.33977C11.0585 2.32445 10.2625 6.19027 10.2625 6.19027Z" stroke="#E4325A" stroke-width="1.5481" stroke-linecap="round" stroke-linejoin="round"/>
</svg>
