<svg width="17" height="16" viewBox="0 0 17 16" fill="none" xmlns="http://www.w3.org/2000/svg">
<path d="M8.50285 14.6667C12.1847 14.6667 15.1695 11.6819 15.1695 8.00001C15.1695 4.31811 12.1847 1.33334 8.50285 1.33334C4.82095 1.33334 1.83618 4.31811 1.83618 8.00001C1.83618 11.6819 4.82095 14.6667 8.50285 14.6667Z" stroke="black" stroke-linecap="round" stroke-linejoin="round"/>
<path d="M6.56299 6.00001C6.71972 5.55446 7.02909 5.17875 7.43629 4.93944C7.84349 4.70012 8.32225 4.61264 8.78777 4.69249C9.25329 4.77234 9.67553 5.01436 9.97971 5.3757C10.2839 5.73703 10.4504 6.19436 10.4497 6.66668C10.4497 8.00001 8.44965 8.66668 8.44965 8.66668" stroke="black" stroke-linecap="round" stroke-linejoin="round"/>
<path d="M8.50293 11.3333H8.5096" stroke="black" stroke-linecap="round" stroke-linejoin="round"/>
</svg>
